Coordinates
version=1
nRows=19
nColumns=34
inDegrees=yes

Units are S.I. units (second, meters, Newtons, ...)
If the header above contains a line with 'inDegrees', this indicates whether rotational values are in degrees (yes) or radians (no).

endheader
time	pelvis_tilt	pelvis_list	pelvis_rotation	pelvis_tx	pelvis_ty	pelvis_tz	hip_flexion_r	hip_adduction_r	hip_rotation_r	knee_angle_r	ankle_angle_r	subtalar_angle_r	mtp_angle_r	hip_flexion_l	hip_adduction_l	hip_rotation_l	knee_angle_l	ankle_angle_l	subtalar_angle_l	mtp_angle_l	lumbar_extension	lumbar_bending	lumbar_rotation	arm_flex_r	arm_add_r	arm_rot_r	elbow_flex_r	pro_sup_r	arm_flex_l	arm_add_l	arm_rot_l	elbow_flex_l	pro_sup_l
      3.40000000	    -14.15520883	      0.21331557	      1.68319365	      0.69634743	      0.72036672	     -0.08655090	     63.68078179	      1.11485339	     -0.19192435	     83.70376368	     40.74420254	    -12.75109626	      0.00000000	     63.38593156	     -6.21685681	     -2.37733094	     84.41837495	     42.92347627	     -5.32789476	      0.00000000	    -28.00870341	      0.30659890	      4.73591102	     37.51265673	    -25.27581828	      5.07521587	     44.93789593	     77.90114161	     55.40612983	    -16.75257811	     26.08025908	     37.49442019	     61.06524231
      3.41666670	    -14.24682041	      0.26927719	      1.81590223	      0.70496891	      0.73052020	     -0.08621057	     62.01474170	      1.22585132	      0.00908060	     81.57516559	     39.27072600	    -13.70871395	      0.00000000	     61.63137874	     -5.74701782	     -2.29188537	     82.13227320	     41.99088522	     -5.80789211	      0.00000000	    -27.20415767	      0.32996335	      4.43816930	     37.01726916	    -25.70518939	      4.67110744	     44.85550201	     77.95748292	     55.76305320	    -17.92020475	     25.95604684	     36.60232822	     61.47958351
      3.43333330	    -13.56808482	      0.13496841	      1.57877069	      0.72800928	      0.74647771	     -0.08525366	     58.36860496	      1.83961440	      0.38279668	     78.47702445	     39.25390682	    -13.51712470	      0.00000000	     57.92410165	     -5.87841533	     -2.23863056	     79.32027476	     41.81634013	     -5.62641283	      0.00000000	    -26.14290132	      0.35945365	      4.80068272	     34.76306132	    -25.81133868	      3.92634144	     44.13210634	     78.04879233	     54.11114832	    -19.04198359	     25.64822478	     36.38479564	     62.00919158
      3.45000000	    -13.54976711	      0.10427136	      1.70793014	      0.73874592	      0.75749757	     -0.08418531	     55.53059685	      1.98235665	      0.40612423	     75.80396172	     39.19125211	    -13.51158469	      0.00000000	     55.05356925	     -5.74890012	     -2.26991049	     76.73261476	     41.58635366	     -5.56442460	      0.00000000	    -23.48513820	      0.50940875	      4.85080556	     31.57461202	    -26.20538518	      3.91109847	     43.40313525	     78.05972467	     51.63670865	    -20.37422924	     25.62301468	     35.80523809	     62.06434027
      3.46666670	    -12.73461100	      0.04483992	      1.64429126	      0.74577506	      0.76853381	     -0.08331818	     52.15211129	      2.18447468	      0.32649537	     73.18540857	     38.35708424	    -14.12377521	      0.00000000	     51.57279784	     -5.69421239	     -2.27659709	     73.74715049	     41.87572074	     -5.20113694	      0.00000000	    -22.18746348	      0.49226740	      5.27865534	     27.82702175	    -26.37161501	      0.56562292	     44.82314540	     78.31981326	     48.70051713	    -21.35436228	     22.75822610	     37.22245052	     63.62503596
      3.48333330	    -13.19931623	      0.06668861	      1.66678051	      0.75945536	      0.77941698	     -0.08355018	     50.23551777	      2.11790243	      0.37505217	     70.57985879	     38.22495733	    -13.75330267	      0.00000000	     49.59100919	     -5.47925946	     -2.27816534	     71.05504312	     42.18761578	     -4.43883266	      0.00000000	    -18.38955451	      0.56478391	      5.56515690	     23.40412689	    -27.02186504	      0.12835207	     44.99322143	     78.49894956	     44.77787317	    -22.71045216	     22.34727876	     37.32345146	     64.11330742
      3.50000000	    -13.78500067	      0.03055353	      1.77987314	      0.77044264	      0.79621430	     -0.08418568	     48.18309903	      1.97297403	      0.27256460	     67.15148858	     37.35001551	    -13.37986026	      0.00000000	     47.78061208	     -5.12180570	     -2.25960461	     67.84401822	     41.49467405	     -3.94290886	      0.00000000	    -14.54737478	      0.70177786	      5.89321319	     17.52188267	    -27.22485574	     -2.26881717	     46.65929631	     78.80409110	     40.26261128	    -23.67254148	     20.13684349	     38.54215472	     65.35623452
      3.51666670	    -13.95095941	     -0.14431533	      1.32099194	      0.78943723	      0.81994670	     -0.08457238	     44.71748696	      2.13391361	      0.20744900	     62.17223091	     35.27990790	    -12.72215994	      0.00000000	     44.43843367	     -5.27165198	     -2.50976509	     63.56308457	     38.80870362	     -4.17891057	      0.00000000	    -10.37638465	      1.04190513	      6.54426731	     12.21305898	    -27.35598743	     -2.62386674	     46.04141653	     78.99778968	     35.38057464	    -24.39824410	     19.43259145	     38.69831210	     65.77677220
      3.53333330	    -13.63353471	     -0.19188631	      1.02480778	      0.80235901	      0.85270192	     -0.08450426	     39.83191318	      1.98649088	     -0.15452051	     55.38702540	     30.14137527	    -12.85839443	      0.00000000	     39.30976480	     -5.04337086	     -2.95305972	     56.52739165	     36.22599093	     -2.61372538	      0.00000000	     -6.84729068	      1.33956937	      6.64434494	      6.76481452	    -26.82656207	     -3.21931416	     45.57624617	     79.07702908	     30.06809999	    -24.87787421	     18.56181977	     38.05039480	     66.04017510
      3.55000000	    -12.87174795	     -0.15678956	      0.89853306	      0.81502633	      0.88528421	     -0.08341570	     34.06388475	      1.71018755	     -0.83919417	     47.36471530	     25.54829050	    -11.08583056	      0.00000000	     33.42702494	     -4.79664165	     -3.48292946	     48.46031274	     32.10164161	     -1.21485226	      0.00000000	     -4.15265799	      1.50882898	      6.89885913	      0.42000388	    -25.78385350	     -5.37064359	     46.48485587	     79.21573434	     24.33545063	    -24.89934117	     16.59945531	     37.91752400	     66.66982089
      3.56666670	    -11.99889146	     -0.20675542	      0.85811327	      0.83292499	      0.90724881	     -0.08166829	     28.41247684	      1.47753284	     -1.93249732	     39.81287578	     20.09570407	     -8.89623984	      0.00000000	     27.63371510	     -4.99004871	     -4.83688725	     40.46532127	     26.47119797	      0.32106159	      0.00000000	     -1.07772309	      1.63403576	      6.87657496	     -5.55698988	    -24.71846583	     -6.07041155	     46.35377275	     79.23908357	     18.71226970	    -25.13409898	     16.68206848	     37.00369996	     66.98617900
      3.58333330	    -11.00643865	     -0.24428095	      0.64220320	      0.85941323	      0.93196813	     -0.08005268	     22.40970463	      1.22921700	     -3.47974249	     31.83706775	     13.46888541	     -6.02220368	      0.00000000	     21.57998206	     -5.35343971	     -6.75231736	     32.46245519	     21.21951882	      3.51383624	      0.00000000	      2.00417658	      1.73957533	      7.76097492	    -13.04179603	    -23.32142408	     -8.45385417	     47.48931792	     79.03121880	     12.60197113	    -25.10450913	     16.39449396	     37.25778310	     67.34458903
      3.60000000	    -10.83480653	     -0.56355218	      0.38609814	      0.86722356	      0.97127777	     -0.07785983	     18.00866287	      1.44311046	     -5.20589867	     23.24433290	      4.66301782	     -2.27803471	      0.00000000	     17.05210909	     -5.81616010	     -8.41801801	     24.70045119	     13.82453137	      6.81347052	      0.00000000	      4.62456168	      2.31853710	      9.03398586	    -20.75761296	    -21.04334175	    -12.56609607	     51.05162702	     78.68802367	      6.61304183	    -24.79936805	     16.40346520	     38.84415795	     67.75293941
      3.61666670	    -10.27593275	     -0.76007021	      0.68108358	      0.87496042	      1.01828398	     -0.07667594	     13.42703916	      1.47079098	     -7.38314064	     13.47548243	     -5.96636337	      2.99752685	      0.00000000	     12.90579758	     -5.96100475	     -9.69041226	     16.49006603	      1.73514229	     10.03414984	      0.00000000	      6.16419583	      2.66185423	      8.96032793	    -25.77299768	    -18.87404110	    -13.80301176	     51.85185786	     78.56760798	      1.56153969	    -24.54252034	     17.36305927	     38.65255239	     67.87014786
      3.63333330	     -9.82664312	     -1.05443801	      0.58990055	      0.88433767	      1.05013032	     -0.07867430	      9.85102518	      1.75530807	    -10.47780337	      4.81329230	    -20.37561630	      7.78655503	      0.00000000	     10.25222752	     -6.29134234	    -12.28065282	      9.53408285	    -12.20051260	     12.40271117	      0.00000000	      7.26272900	      3.25185414	      8.84495089	    -29.13939108	    -16.93062046	    -14.70291930	     51.58739766	     78.32281900	     -3.21092655	    -23.61248449	     18.15539886	     37.78005852	     67.67690170
      3.65000000	     -9.54857783	     -1.01487178	      0.82405405	      0.89372365	      1.08145746	     -0.07883680	      7.93521140	      1.67972541	    -13.95086319	      0.00000000	    -30.03156342	     10.50802301	      0.00000000	      8.72974444	     -6.03231261	    -14.82314710	      4.10038739	    -23.72422518	     14.17836355	      0.00000000	      8.43214723	      3.39938955	      8.65395402	    -31.70546662	    -15.09030257	    -15.02782068	     50.04779510	     78.01018475	     -7.50232297	    -22.30568988	     18.79243298	     35.97995301	     67.29641176
      3.66666670	     -9.38572814	     -0.62239233	      0.57771016	      0.89238159	      1.11178343	     -0.07554594	      7.66965305	      0.97238946	    -15.25501339	      0.00000000	    -30.45324360	     13.24424825	      0.00000000	      8.24326312	     -5.32892757	    -18.00551346	      0.45923650	    -33.95363334	     13.64893719	      0.00000000	      9.51159627	      3.08997792	      8.35320305	    -31.97605446	    -13.69367124	    -14.80197503	     45.98149497	     77.18071656	    -10.16719202	    -20.18652535	     19.18774747	     32.31273177	     66.02409234
      3.68333330	     -9.03370174	     -0.65946260	      0.89723242	      0.89486822	      1.14675393	     -0.07553249	      6.74697455	      0.66148074	    -16.33302041	      0.00000000	    -33.38679038	     12.85024620	      0.00000000	      8.60091533	     -5.14773793	    -18.27615312	      0.00000000	    -37.28693325	     15.32784539	      0.00000000	      9.86996057	      3.16572105	      7.45738737	    -32.09155964	    -12.99985779	    -13.93074815	     42.45616145	     76.14467941	    -12.21006614	    -18.07110640	     20.26607981	     28.88564776	     64.70087670
      3.70000000	     -8.14515463	     -0.46842649	      1.45056673	      0.90996406	      1.17399036	     -0.07702635	      4.73037139	      0.07995931	    -15.74269535	      0.00000000	    -35.22494570	     12.99456167	      0.00000000	      7.55803670	     -4.61393163	    -16.52705358	      0.00000000	    -37.41127262	     17.93542637	      0.00000000	      9.64894084	      2.97459070	      7.16642223	    -31.98519527	    -11.93506029	    -12.53348088	     37.99200828	     74.59644355	    -13.90897204	    -16.40239615	     21.24414277	     26.26225688	     62.62305170
